<?xml version="1.0" encoding="UTF-8" standalone="no"?>
<!DOCTYPE svg PUBLIC "-//W3C//DTD SVG 1.1//EN" "http://www.w3.org/Graphics/SVG/1.1/DTD/svg11.dtd">
<svg version="1.1" xmlns="http://www.w3.org/2000/svg" xmlns:xlink="http://www.w3.org/1999/xlink" preserveAspectRatio="xMidYMid meet" viewBox="0 0 640 640" width="100" height="100">
   <defs>
      <path d="M73.49 0C77.08 0 80 2.92 80 6.51C80 7.82 80 5.21 80 6.51C80 10.11 77.08 13.03 73.49 13.03C58.79 13.03 21.21 13.03 6.51 13.03C2.92 13.03 0 10.11 0 6.51C0 5.21 0 7.82 0 6.51C0 2.92 2.92 0 6.51 0C21.21 0 58.79 0 73.49 0Z" id="b2BvjIeqvj"></path>
      <path d="M73.49 21.59C77.08 21.59 80 24.51 80 28.1C80 29.41 80 26.8 80 28.1C80 31.7 77.08 34.62 73.49 34.62C58.79 34.62 21.21 34.62 6.51 34.62C2.92 34.62 0 31.7 0 28.1C0 26.8 0 29.41 0 28.1C0 24.51 2.92 21.59 6.51 21.59C21.21 21.59 58.79 21.59 73.49 21.59Z" id="b5cqLgges"></path>
      <path d="M73.49 45.04C77.08 45.04 80 47.96 80 51.56C80 52.86 80 50.25 80 51.56C80 55.15 77.08 58.07 73.49 58.07C58.79 58.07 21.21 58.07 6.51 58.07C2.92 58.07 0 55.15 0 51.56C0 50.25 0 52.86 0 51.56C0 47.96 2.92 45.04 6.51 45.04C21.21 45.04 58.79 45.04 73.49 45.04Z" id="dk85uHwA2"></path>
   </defs>
   <g>
      <g>
         <g>
            <g>
               <filter id="shadow11112966" x="-9" y="-9" width="99" height="32.03" filterUnits="userSpaceOnUse" primitiveUnits="userSpaceOnUse">
                  <feFlood></feFlood>
                  <feComposite in2="SourceAlpha" operator="in"></feComposite>
                  <feGaussianBlur stdDeviation="1"></feGaussianBlur>
                  <feOffset dx="1" dy="1" result="afterOffset"></feOffset>
                  <feFlood flood-color="#000000" flood-opacity="0.5"></feFlood>
                  <feComposite in2="afterOffset" operator="in"></feComposite>
                  <feMorphology operator="dilate" radius="1"></feMorphology>
                  <feComposite in2="SourceAlpha" operator="out"></feComposite>
               </filter>
               <path d="M73.49 0C77.08 0 80 2.92 80 6.51C80 7.82 80 5.21 80 6.51C80 10.11 77.08 13.03 73.49 13.03C58.79 13.03 21.21 13.03 6.51 13.03C2.92 13.03 0 10.11 0 6.51C0 5.21 0 7.82 0 6.51C0 2.92 2.92 0 6.51 0C21.21 0 58.79 0 73.49 0Z" id="b1GuvYnLZ0" fill="white" fill-opacity="1" filter="url(#shadow11112966)"></path>
            </g>
            <use xlink:href="#b2BvjIeqvj" opacity="1" fill="#000000" fill-opacity="1"></use>
            <g>
               <use xlink:href="#b2BvjIeqvj" opacity="1" fill-opacity="0" stroke="#000000" stroke-width="1" stroke-opacity="1"></use>
            </g>
         </g>
         <g>
            <g>
               <filter id="shadow896408" x="-9" y="12.59" width="99" height="32.03" filterUnits="userSpaceOnUse" primitiveUnits="userSpaceOnUse">
                  <feFlood></feFlood>
                  <feComposite in2="SourceAlpha" operator="in"></feComposite>
                  <feGaussianBlur stdDeviation="1"></feGaussianBlur>
                  <feOffset dx="1" dy="1" result="afterOffset"></feOffset>
                  <feFlood flood-color="#000000" flood-opacity="0.5"></feFlood>
                  <feComposite in2="afterOffset" operator="in"></feComposite>
                  <feMorphology operator="dilate" radius="1"></feMorphology>
                  <feComposite in2="SourceAlpha" operator="out"></feComposite>
               </filter>
               <path d="M73.49 21.59C77.08 21.59 80 24.51 80 28.1C80 29.41 80 26.8 80 28.1C80 31.7 77.08 34.62 73.49 34.62C58.79 34.62 21.21 34.62 6.51 34.62C2.92 34.62 0 31.7 0 28.1C0 26.8 0 29.41 0 28.1C0 24.51 2.92 21.59 6.51 21.59C21.21 21.59 58.79 21.59 73.49 21.59Z" id="cQDumEcfp" fill="white" fill-opacity="1" filter="url(#shadow896408)"></path>
            </g>
            <use xlink:href="#b5cqLgges" opacity="1" fill="#000000" fill-opacity="1"></use>
            <g>
               <use xlink:href="#b5cqLgges" opacity="1" fill-opacity="0" stroke="#000000" stroke-width="1" stroke-opacity="1"></use>
            </g>
         </g>
         <g>
            <g>
               <filter id="shadow9670197" x="-9" y="36.04" width="99" height="32.03" filterUnits="userSpaceOnUse" primitiveUnits="userSpaceOnUse">
                  <feFlood></feFlood>
                  <feComposite in2="SourceAlpha" operator="in"></feComposite>
                  <feGaussianBlur stdDeviation="1"></feGaussianBlur>
                  <feOffset dx="1" dy="1" result="afterOffset"></feOffset>
                  <feFlood flood-color="#000000" flood-opacity="0.5"></feFlood>
                  <feComposite in2="afterOffset" operator="in"></feComposite>
                  <feMorphology operator="dilate" radius="1"></feMorphology>
                  <feComposite in2="SourceAlpha" operator="out"></feComposite>
               </filter>
               <path d="M73.49 45.04C77.08 45.04 80 47.96 80 51.56C80 52.86 80 50.25 80 51.56C80 55.15 77.08 58.07 73.49 58.07C58.79 58.07 21.21 58.07 6.51 58.07C2.92 58.07 0 55.15 0 51.56C0 50.25 0 52.86 0 51.56C0 47.96 2.92 45.04 6.51 45.04C21.21 45.04 58.79 45.04 73.49 45.04Z" id="g51sPqQzwK" fill="white" fill-opacity="1" filter="url(#shadow9670197)"></path>
            </g>
            <use xlink:href="#dk85uHwA2" opacity="1" fill="#000000" fill-opacity="1"></use>
            <g>
               <use xlink:href="#dk85uHwA2" opacity="1" fill-opacity="0" stroke="#000000" stroke-width="1" stroke-opacity="1"></use>
            </g>
         </g>
      </g>
   </g>
</svg>